<svg width="159" height="249" viewBox="0 0 159 249" fill="none" xmlns="http://www.w3.org/2000/svg">
<path d="M53.0003 35.9808C52.9935 37.5549 53.0898 39.1277 53.2887 40.6895C54.1887 47.6339 57.13 54.1667 61.75 59.482C66.3699 64.7972 72.4664 68.6626 79.2874 70.6011C82.5156 71.5141 85.8558 71.9847 89.2141 71.9997C91.7674 72.0115 94.3149 71.7599 96.8152 71.2492C101.581 70.2596 106.097 68.3391 110.098 65.6007C114.098 62.8623 117.503 59.3616 120.11 55.305C120.446 54.7828 120.767 54.2467 121.079 53.7106C122.522 51.1835 123.648 48.4923 124.431 45.6965C124.695 44.7641 124.903 43.7851 125.111 42.8061C125.319 41.827 125.447 40.834 125.551 39.8223C125.674 38.6568 125.737 37.4773 125.74 36.2839C125.748 34.846 125.668 33.409 125.499 31.9808C125.385 30.9924 125.228 30.0181 125.026 29.0577C123.61 22.1294 120.151 15.7678 115.084 10.7701C110.016 5.7725 103.566 2.36133 96.541 0.964246C95.5673 0.76844 94.5746 0.614593 93.5724 0.498042C92.2262 0.343135 90.8721 0.263753 89.5167 0.260279C88.2174 0.25183 86.9186 0.314084 85.6263 0.446759C84.6053 0.544662 83.5937 0.693848 82.601 0.880329C81.6083 1.06681 80.6298 1.28593 79.6655 1.547C76.8299 2.31863 74.101 3.43027 71.5397 4.85705C70.9914 5.16008 70.4478 5.4771 69.9184 5.78946C64.0875 9.44103 59.4234 14.6455 56.4653 20.8012C55.2451 23.3417 54.3359 26.0163 53.7567 28.7687C53.2601 31.1416 53.0068 33.5578 53.0003 35.9808Z" fill="#F0F0F0"/>
<path opacity="0.1" d="M53.0003 35.9808C52.9935 37.5549 53.0898 39.1277 53.2887 40.6895C54.1887 47.6339 57.13 54.1667 61.75 59.482C66.3699 64.7972 72.4664 68.6626 79.2874 70.6011C82.5156 71.5141 85.8558 71.9847 89.2141 71.9997C91.7674 72.0115 94.3149 71.7599 96.8152 71.2492C101.581 70.2596 106.097 68.3391 110.098 65.6007C114.098 62.8623 117.503 59.3616 120.11 55.305C120.446 54.7828 120.767 54.2467 121.079 53.7106C122.522 51.1835 123.648 48.4923 124.431 45.6965C124.695 44.7641 124.903 43.7851 125.111 42.8061C125.319 41.827 125.447 40.834 125.551 39.8223C125.674 38.6568 125.737 37.4773 125.74 36.2839C125.748 34.846 125.668 33.409 125.499 31.9808C125.385 30.9924 125.228 30.0181 125.026 29.0577C123.61 22.1294 120.151 15.7678 115.084 10.7701C110.016 5.7725 103.566 2.36133 96.541 0.964246C95.5673 0.76844 94.5746 0.614593 93.5724 0.498042C92.2262 0.343135 90.8721 0.263753 89.5167 0.260279C88.2174 0.25183 86.9186 0.314084 85.6263 0.446759C84.6053 0.544662 83.5937 0.693848 82.601 0.880329C81.6083 1.06681 80.6298 1.28593 79.6655 1.547C76.8299 2.31863 74.101 3.43027 71.5397 4.85705C70.9914 5.16008 70.4478 5.4771 69.9184 5.78946C64.0875 9.44103 59.4234 14.6455 56.4653 20.8012C55.2451 23.3417 54.3359 26.0163 53.7567 28.7687C53.2601 31.1416 53.0068 33.5578 53.0003 35.9808Z" fill="white"/>
<path opacity="0.05" d="M124.317 26.1904C124.591 27.1228 124.832 28.0925 125.031 29.0716C125.229 30.0506 125.385 31.0063 125.504 31.9947C125.672 33.4229 125.753 34.8599 125.745 36.2977C125.745 37.4912 125.682 38.6707 125.556 39.8362C125.452 40.8494 125.305 41.844 125.116 42.8199C124.927 43.799 124.7 44.7593 124.435 45.7104C123.649 48.4967 122.522 51.1784 121.079 53.6965C120.767 54.2326 120.446 54.7687 120.11 55.2909C116.822 60.4326 112.26 64.6635 106.854 67.5844C101.449 70.5054 95.3778 72.0201 89.2142 71.9856C87.8872 71.9772 86.5617 71.8979 85.2435 71.7479L124.317 26.1904Z" fill="black"/>
<path opacity="0.05" d="M123.754 47.8411C123.045 49.8689 122.149 51.8288 121.079 53.6966C120.767 54.2327 120.446 54.7689 120.11 55.291C116.806 60.4312 112.234 64.6609 106.822 67.5848L123.754 47.8411Z" fill="black"/>
<path opacity="0.15" d="M119.344 15.8079C120.515 17.483 121.537 19.255 122.398 21.1039L79.8546 70.75L79.2779 70.5961C77.4963 70.0814 75.7579 69.4315 74.0781 68.6521L119.344 15.8079Z" fill="white"/>
<path opacity="0.15" d="M105.433 3.93848C107.34 4.8691 109.162 5.96099 110.878 7.2019L64.038 61.8503C62.5117 60.3865 61.1183 58.7938 59.8735 57.0904L105.433 3.93848Z" fill="white"/>
<path opacity="0.15" d="M100.119 1.85474C101.244 2.19973 102.347 2.59445 103.428 3.03889L58.6397 55.291C58.0157 54.3167 57.4248 53.319 56.8954 52.284L100.119 1.85474Z" fill="white"/>
<path opacity="0.15" d="M53.1044 33.5378C53.1516 32.8758 53.2225 32.2185 53.3029 31.5704C53.3313 31.3513 53.3549 31.1322 53.388 30.9178C53.4211 30.7033 53.4542 30.4516 53.492 30.2511C53.5771 29.7849 53.6622 29.2721 53.7614 28.7872C55.1983 22.0007 58.6025 15.7717 63.5606 10.857C65.4834 8.94474 67.6176 7.25116 69.9231 5.80802C70.4526 5.47702 70.9962 5.16 71.5445 4.87561C74.1057 3.44884 76.8347 2.33719 79.6703 1.56557C80.0295 1.46766 80.3888 1.38374 80.7528 1.29517L53.1044 33.5378Z" fill="white"/>
<path d="M62.2701 36.1298C62.2691 42.9087 64.8804 49.4346 69.5751 54.3859C74.2698 59.3372 80.6969 62.3438 87.555 62.7967C88.1506 62.834 88.7651 62.8573 89.3749 62.8573C96.5009 62.7645 103.303 59.9075 108.309 54.9048C113.315 49.902 116.122 43.1562 116.122 36.1275C116.122 29.0989 113.315 22.353 108.309 17.3503C103.303 12.3475 96.5009 9.49052 89.3749 9.39771C88.7651 9.39771 88.1506 9.3977 87.555 9.45831C80.6969 9.91348 74.2704 12.9214 69.576 17.8732C64.8816 22.825 62.2702 29.3508 62.2701 36.1298Z" fill="#F0F0F0"/>
<path opacity="0.4" d="M62.2701 36.1298C62.2691 42.9087 64.8804 49.4346 69.5751 54.3859C74.2698 59.3372 80.6969 62.3438 87.555 62.7967C88.1506 62.834 88.7651 62.8573 89.3749 62.8573C96.5009 62.7645 103.303 59.9075 108.309 54.9048C113.315 49.902 116.122 43.1562 116.122 36.1275C116.122 29.0989 113.315 22.353 108.309 17.3503C103.303 12.3475 96.5009 9.49052 89.3749 9.39771C88.7651 9.39771 88.1506 9.3977 87.555 9.45831C80.6969 9.91348 74.2704 12.9214 69.576 17.8732C64.8816 22.825 62.2702 29.3508 62.2701 36.1298Z" fill="black"/>
<path d="M63.4755 36.1297C63.4755 36.5959 63.4755 37.0621 63.5133 37.491C63.85 43.7217 66.4883 49.6151 70.9299 54.0584C75.3716 58.5016 81.309 61.1871 87.6211 61.6078L87.9757 61.6311C88.4484 61.6311 88.8927 61.6684 89.356 61.6684C95.8467 61.6807 102.105 59.2859 106.889 54.9592C111.672 50.6325 114.632 44.6902 115.18 38.3116C115.246 37.5889 115.274 36.8617 115.274 36.1204C115.274 35.3791 115.251 34.7731 115.199 34.1111C115.093 32.7386 114.872 31.3773 114.537 30.0411C113.404 25.5069 111.034 21.3651 107.684 18.0647C104.335 14.7643 100.133 12.4312 95.5342 11.3183C94.1794 10.9881 92.7991 10.7698 91.4075 10.6657C90.7363 10.6144 90.0556 10.5911 89.3701 10.5911C88.7887 10.5911 88.2073 10.5911 87.6353 10.647C87.4746 10.647 87.3139 10.647 87.1626 10.6843C83.3899 10.9954 79.7336 12.1258 76.4559 13.9944C72.5106 16.2321 69.234 19.4573 66.9574 23.3439C64.6807 27.2306 63.4845 31.6411 63.4896 36.1297H63.4755Z" fill="#F0F0F0"/>
<path opacity="0.5" d="M63.4755 36.1297C63.4755 36.5959 63.4755 37.0621 63.5133 37.491C63.85 43.7217 66.4883 49.6151 70.9299 54.0584C75.3716 58.5016 81.309 61.1871 87.6211 61.6078L87.9757 61.6311C88.4484 61.6311 88.8927 61.6684 89.356 61.6684C95.8467 61.6807 102.105 59.2859 106.889 54.9592C111.672 50.6325 114.632 44.6902 115.18 38.3116C115.246 37.5889 115.274 36.8617 115.274 36.1204C115.274 35.3791 115.251 34.7731 115.199 34.1111C115.093 32.7386 114.872 31.3773 114.537 30.0411C113.404 25.5069 111.034 21.3651 107.684 18.0647C104.335 14.7643 100.133 12.4312 95.5342 11.3183C94.1794 10.9881 92.7991 10.7698 91.4075 10.6657C90.7363 10.6144 90.0556 10.5911 89.3701 10.5911C88.7887 10.5911 88.2073 10.5911 87.6353 10.647C87.4746 10.647 87.3139 10.647 87.1626 10.6843C83.3899 10.9954 79.7336 12.1258 76.4559 13.9944C72.5106 16.2321 69.234 19.4573 66.9574 23.3439C64.6807 27.2306 63.4845 31.6411 63.4896 36.1297H63.4755Z" fill="black"/>
<path d="M107.616 54.2511C111.985 49.9983 114.668 44.3446 115.18 38.3116C115.246 37.5889 115.279 36.8617 115.279 36.1204C115.279 35.3791 115.251 34.7731 115.199 34.1111C115.093 32.7386 114.872 31.3773 114.537 30.0411C113.404 25.5069 111.034 21.3651 107.684 18.0647C104.335 14.7643 100.133 12.4312 95.5341 11.3183C94.1793 10.9881 92.799 10.7698 91.4074 10.6657C90.7362 10.6144 90.0555 10.5911 89.3701 10.5911C88.7887 10.5911 88.2072 10.5911 87.6353 10.647C87.4745 10.647 87.3138 10.647 87.1626 10.6843C83.3898 10.9954 79.7336 12.1258 76.4558 13.9944C75.3197 14.6506 74.2357 15.3909 73.2131 16.2088C70.7929 18.5749 68.8731 21.3914 67.565 24.495C66.257 27.5985 65.5867 30.9272 65.5931 34.2882C65.5931 34.7544 65.5931 35.1973 65.6357 35.6495C65.9704 41.8809 68.6081 47.7754 73.0501 52.2191C77.4921 56.6627 83.4307 59.3476 89.7435 59.7663H90.0933C90.566 59.7896 91.0151 59.8036 91.4783 59.8036C97.3459 59.8094 103.039 57.8353 107.612 54.2091L107.616 54.2511Z" fill="#F0F0F0"/>
<path opacity="0.25" d="M107.616 54.2511C111.985 49.9983 114.668 44.3446 115.18 38.3116C115.246 37.5889 115.279 36.8617 115.279 36.1204C115.279 35.3791 115.251 34.7731 115.199 34.1111C115.093 32.7386 114.872 31.3773 114.537 30.0411C113.404 25.5069 111.034 21.3651 107.684 18.0647C104.335 14.7643 100.133 12.4312 95.5341 11.3183C94.1793 10.9881 92.799 10.7698 91.4074 10.6657C90.7362 10.6144 90.0555 10.5911 89.3701 10.5911C88.7887 10.5911 88.2072 10.5911 87.6353 10.647C87.4745 10.647 87.3138 10.647 87.1626 10.6843C83.3898 10.9954 79.7336 12.1258 76.4558 13.9944C75.3197 14.6506 74.2357 15.3909 73.2131 16.2088C70.7929 18.5749 68.8731 21.3914 67.565 24.495C66.257 27.5985 65.5867 30.9272 65.5931 34.2882C65.5931 34.7544 65.5931 35.1973 65.6357 35.6495C65.9704 41.8809 68.6081 47.7754 73.0501 52.2191C77.4921 56.6627 83.4307 59.3476 89.7435 59.7663H90.0933C90.566 59.7896 91.0151 59.8036 91.4783 59.8036C97.3459 59.8094 103.039 57.8353 107.612 54.2091L107.616 54.2511Z" fill="black"/>
<path d="M71.5445 4.857C87.1957 -3.1384 99.9067 1.02014 108.415 6.00853C120.706 14.1438 128.458 27.7709 124.218 45.7804V45.7431C122.599 51.7332 119.414 57.1991 114.981 61.594C119.558 57.1856 122.886 51.6728 124.634 45.6032V45.6359C128.543 30.7173 123.627 18.8711 115.426 10.5121C106.638 2.52132 91.7478 -5.37151 71.5445 4.857Z" fill="#F5F5F5"/>
<path d="M85.475 17.2534L85.4466 20.694C85.4466 20.694 81.8588 20.0693 77.7699 23.2535C77.5998 23.3887 77.4485 23.5192 77.2972 23.6497C76.4499 24.3733 75.7762 25.2737 75.3249 26.2855C74.8737 27.2974 74.6561 28.3956 74.6879 29.5006C74.6543 30.6155 74.8747 31.7237 75.3328 32.7435C75.7909 33.7634 76.4751 34.6689 77.335 35.3934C77.4721 35.51 77.6328 35.6172 77.7699 35.7337L77.8125 35.7757L78.2852 36.1114C78.428 36.2111 78.5763 36.303 78.7295 36.3864C78.789 36.4253 78.8506 36.4611 78.9139 36.4937C79.0262 36.5701 79.1447 36.6372 79.2684 36.6941C80.299 37.2365 81.3743 37.6919 82.4828 38.0554C83.0264 38.2419 83.5889 38.4097 84.1514 38.5636C84.9645 38.792 85.7775 39.0018 86.5528 39.1976L87.4982 39.4261C89.7104 39.9529 91.3223 40.3818 92.3434 40.9506C92.9161 41.2069 93.3771 41.6566 93.6433 42.2186C93.7632 42.5152 93.8242 42.8318 93.8229 43.151C93.8229 44.489 92.6932 45.5706 89.6206 45.4821C86.3495 45.3609 84.5107 44.0835 84.0711 42.1161L75.0897 43.7758C76.4464 47.8317 80.1004 50.4798 85.8342 51.4495V55.8831L93.2273 56.1535V51.7199C96.333 51.4635 98.8998 50.629 100.649 49.2257L100.696 49.1884C101.604 48.4536 102.327 47.5217 102.81 46.4655C103.292 45.4092 103.52 44.2573 103.476 43.0998C103.504 37.2582 98.8005 35.1743 93.7662 33.813C89.0628 32.5682 84.8794 32.2605 84.8888 29.4213C84.8888 27.6498 86.5338 26.9132 88.9541 26.9971C92.8161 27.1323 94.3193 29.3794 94.6265 31.0111L104.081 29.3188C103.87 28.4823 103.552 27.6755 103.135 26.9178C102.42 25.6523 101.427 24.5611 100.228 23.7243C98.1293 22.2325 95.4632 21.3933 92.7877 20.983V16.5355L85.4703 16.1345L85.475 17.2534Z" fill="#F0F0F0"/>
<path opacity="0.1" d="M85.475 17.2534L85.4466 20.694C85.4466 20.694 81.8588 20.0693 77.7699 23.2535C77.5998 23.3887 77.4485 23.5192 77.2972 23.6497C76.4499 24.3733 75.7762 25.2737 75.3249 26.2855C74.8737 27.2974 74.6561 28.3956 74.6879 29.5006C74.6543 30.6155 74.8747 31.7237 75.3328 32.7435C75.7909 33.7634 76.4751 34.6689 77.335 35.3934C77.4721 35.51 77.6328 35.6172 77.7699 35.7337L77.8125 35.7757L78.2852 36.1114C78.428 36.2111 78.5763 36.303 78.7295 36.3864C78.789 36.4253 78.8506 36.4611 78.9139 36.4937C79.0262 36.5701 79.1447 36.6372 79.2684 36.6941C80.299 37.2365 81.3743 37.6919 82.4828 38.0554C83.0264 38.2419 83.5889 38.4097 84.1514 38.5636C84.9645 38.792 85.7775 39.0018 86.5528 39.1976L87.4982 39.4261C89.7104 39.9529 91.3223 40.3818 92.3434 40.9506C92.9161 41.2069 93.3771 41.6566 93.6433 42.2186C93.7632 42.5152 93.8242 42.8318 93.8229 43.151C93.8229 44.489 92.6932 45.5706 89.6206 45.4821C86.3495 45.3609 84.5107 44.0835 84.0711 42.1161L75.0897 43.7758C76.4464 47.8317 80.1004 50.4798 85.8342 51.4495V55.8831L93.2273 56.1535V51.7199C96.333 51.4635 98.8998 50.629 100.649 49.2257L100.696 49.1884C101.604 48.4536 102.327 47.5217 102.81 46.4655C103.292 45.4092 103.52 44.2573 103.476 43.0998C103.504 37.2582 98.8005 35.1743 93.7662 33.813C89.0628 32.5682 84.8794 32.2605 84.8888 29.4213C84.8888 27.6498 86.5338 26.9132 88.9541 26.9971C92.8161 27.1323 94.3193 29.3794 94.6265 31.0111L104.081 29.3188C103.87 28.4823 103.552 27.6755 103.135 26.9178C102.42 25.6523 101.427 24.5611 100.228 23.7243C98.1293 22.2325 95.4632 21.3933 92.7877 20.983V16.5355L85.4703 16.1345L85.475 17.2534Z" fill="white"/>
<path d="M103.476 43.0857C103.466 41.1172 102.705 39.2246 101.344 37.7849C100.029 36.3863 98.1576 35.4539 96.0777 34.7266C93.9978 33.9993 91.7241 33.5052 89.4929 32.9317C88.4163 32.6776 87.3739 32.2989 86.3873 31.8035C85.9318 31.5866 85.5487 31.2458 85.2832 30.8212C85.0177 30.3966 84.8809 29.906 84.8888 29.4072C84.9219 30.4748 85.6262 31.1928 86.5575 31.645C87.5708 32.1009 88.6333 32.4418 89.7246 32.6613C91.9799 33.1128 94.2082 33.6871 96.3991 34.3816C98.4696 35.1322 100.379 36.0973 101.651 37.5611C102.295 38.2852 102.786 39.1283 103.097 40.0413C103.385 41.0302 103.512 42.0576 103.476 43.0857Z" fill="white"/>
<path d="M85.4893 16.1204L92.1024 17.0341L92.7831 20.9689L92.8067 16.5213L85.4893 16.1204Z" fill="#FAFAFA"/>
<path d="M85.8344 51.4353L86.4536 55.3607L93.218 56.1393L85.8297 55.8689L85.8344 51.4353Z" fill="#FAFAFA"/>
<path opacity="0.15" d="M75.0897 43.7618C75.3355 44.4742 75.6639 45.1563 76.0682 45.7945L78.6491 43.1045L75.0897 43.7618Z" fill="white"/>
<path opacity="0.15" d="M103.466 42.8945C103.492 41.8193 103.283 40.7512 102.855 39.7621C102.427 38.7729 101.789 37.8857 100.984 37.1602L85.8343 52.9831V55.8689L90.878 56.0554L93.2415 53.5892V51.7244C93.9344 51.6668 94.6238 51.575 95.3073 51.4493L103.466 42.8945Z" fill="white"/>
<path opacity="0.15" d="M74.721 30.3862C74.821 31.6253 75.239 32.819 75.9359 33.8547L92.5372 16.5026L88.2261 16.2695L85.4608 19.16V20.6938C84.9818 20.6399 84.4981 20.6399 84.0191 20.6938L74.721 30.3862Z" fill="white"/>
<path opacity="0.15" d="M77.8031 35.7851L78.2758 36.1207C78.4186 36.2205 78.5669 36.3123 78.7201 36.3958C78.7796 36.4347 78.8412 36.4705 78.9045 36.503C79.0168 36.5795 79.1353 36.6466 79.259 36.7035C80.2896 37.2459 81.3649 37.7013 82.4734 38.0648C82.7239 38.1487 82.9839 38.2187 83.2392 38.2979L88.7272 32.5683C86.4394 31.9296 84.8747 31.1417 84.8794 29.4074C84.8842 27.6731 86.5244 26.8992 88.9447 26.9831C90.3547 26.9777 91.7289 27.4208 92.8634 28.2466L98.2711 22.5962C96.5292 21.7904 94.677 21.2407 92.7736 20.9644V19.2908L77.3635 35.4168C77.4958 35.5287 77.6471 35.6359 77.7747 35.7431L77.8031 35.7851Z" fill="white"/>
<path d="M40.8918 126.262C40.5048 125.326 39.357 124.551 38.2155 124.991C35.7392 125.939 34.7719 126.073 31.9796 126.296C29.8491 126.34 27.7374 125.942 25.821 125.136C21.6938 123.029 19.4431 119.796 19.1336 116.133C18.97 114.193 19.2058 112.243 19.8301 110.374C25.7823 113.078 34.1012 111.818 38.5315 107.359C41.8075 104.058 41.0207 99.9889 36.1648 98.3109C31.3089 96.6329 24.2668 97.313 19.9204 99.7603C19.4605 100.02 19.019 100.303 18.5984 100.608C19.1078 96.566 20.9393 92.5355 27.0333 90.0715C27.7427 89.7872 28.3682 89.0681 27.4977 88.9566C22.1452 88.3991 17.7665 91.3537 15.4965 95.3061C13.7102 98.4001 12.846 101.996 14.3164 105.207C13.0837 107.192 12.2136 109.33 11.7369 111.545C10.8792 115.503 11.7046 120.838 13.7553 123.899C16.5541 128.085 20.7587 131.452 28.8777 132.489C33.2822 133.069 43.2198 131.926 40.8918 126.262ZM31.2702 102.492C33.5015 102.492 35.5328 103.261 34.1334 104.895C33.3209 105.842 32.0892 106.394 30.477 106.952C27.9813 107.805 24.5248 107.297 22.1258 106.238C24.3442 103.702 27.5686 102.548 31.2702 102.492Z" fill="#FFA8A7"/>
<path d="M14.3228 105.229C13.3906 106.746 12.6698 108.354 12.1754 110.018C13.9528 111.886 16.4346 113.153 19.1852 113.597C19.2921 112.506 19.5232 111.426 19.8752 110.374C16.3026 108.624 15.3159 107.08 14.3228 105.229Z" fill="#F28F8F"/>
<path d="M22.1258 106.238C22.3974 105.926 22.6903 105.628 23.0028 105.346C21.9784 104.85 21.0672 104.196 20.3137 103.417C18.7209 101.823 18.6048 100.63 18.6048 100.63C18.4952 102.587 20.0815 105.29 22.1258 106.238Z" fill="#F28F8F"/>
<path d="M92.2756 217.542V217.419V217.297C92.7077 214.509 90.7795 211.622 86.4717 209.492C78.6751 205.59 66.0291 205.59 58.2261 209.492C53.9376 211.633 52.0159 214.509 52.4222 217.297V217.425C52.4222 217.464 44.129 216.494 44.129 216.494L46.0637 218.228C51.1831 222.889 54.5547 228.779 55.7368 235.124L56.8589 241.184V241.245C57.2136 242.951 58.7033 244.59 61.3215 245.917C67.3898 248.944 77.2241 248.944 83.286 245.917C85.9106 244.613 87.3939 242.951 87.7486 241.245V241.201C87.7517 241.186 87.7517 241.171 87.7486 241.156L92.2756 217.542Z" fill="#F28F8F"/>
<path d="M50.5069 196.693V196.575V196.447C50.9389 193.66 48.9527 190.873 44.703 188.643C41.7107 187.071 26.1498 187.071 17.1409 187.071C11.7884 187.071 8.84777 186.602 9.27339 189.401V189.529C9.27339 189.568 3.32117 183.196 3.32117 183.196C8.00728 191.169 11.2522 199.716 12.9427 208.539L15.1805 220.346V220.413C15.5351 222.119 17.0248 223.758 19.643 225.084C25.7113 228.111 35.5457 228.111 41.6075 225.084C44.2322 223.774 45.7154 222.119 46.0701 220.413V220.363C46.0732 220.35 46.0732 220.336 46.0701 220.324L50.5069 196.693Z" fill="#F28F8F"/>
<path d="M96.9123 204.079V203.962V203.834C96.4802 201.046 98.4664 198.259 102.716 196.029C105.708 194.457 121.269 194.457 130.278 194.457C135.631 194.457 138.571 193.989 138.146 196.787V196.916V197.027L132.342 227.727V227.794C131.981 229.5 130.497 231.139 127.879 232.465C121.811 235.492 111.977 235.492 105.915 232.465C103.29 231.155 101.807 229.5 101.452 227.794V227.744C101.449 227.729 101.449 227.714 101.452 227.699L96.9123 204.079Z" fill="#F28F8F"/>
<path d="M92.8818 116.774C84.0276 113.463 73.9482 111.2 63.643 111.2C46.7644 111.201 30.5775 116.998 18.6425 127.315C6.70754 137.633 0.00177104 151.625 6.10352e-05 166.216C6.10352e-05 186.435 13.7231 202.641 31.4121 213.668C38.8282 218.289 51.5967 224.382 58.9483 227.56C69.434 232.098 79.4038 235.119 91.16 235.119C108.037 235.118 124.223 229.321 136.158 219.005C148.093 208.689 154.8 194.698 154.803 180.108C154.803 160.391 142.55 143.873 125.306 133.114C115.478 126.982 102.71 120.459 92.8818 116.774Z" fill="#FFA8A7"/>
<path d="M39.3118 205.456C14.7419 188.292 -0.0257526 150.267 19.6559 126.463C13.4348 131.592 8.4845 137.761 5.1056 144.594C1.72669 151.428 -0.0103126 158.784 4.60584e-05 166.216C4.60584e-05 186.435 13.723 202.641 31.412 213.667C38.8281 218.289 51.5967 224.382 58.9483 227.56C69.434 232.097 79.4038 235.119 91.1599 235.119C100.15 235.127 109.039 233.485 117.24 230.3C125.44 227.115 132.764 222.46 138.726 216.644C103.019 238.865 63.8816 222.626 39.3118 205.456Z" fill="#F49C9C"/>
<path d="M105.65 135.561L115.478 140.467C125.306 138.014 137.056 139.508 144.569 150.501C144.569 150.501 147.148 124.807 143.343 117.711C143.343 117.711 141.306 116.696 140.493 116.284C139.248 115.654 137.269 115.464 134.844 115.827C122.707 117.633 111.757 126.352 105.65 135.561Z" fill="#FFBBBA"/>
<path d="M115.478 140.467C128.208 137.646 137.901 141.091 144.569 150.501C144.569 150.501 155.732 113.574 137.591 117.198C125.306 119.623 115.478 140.467 115.478 140.467Z" fill="#F28F8F"/>
<path d="M133.902 136.787C122.075 133.035 115.478 140.466 115.478 140.466C128.208 137.646 137.901 141.091 144.569 150.501C144.569 150.473 145.736 140.528 133.902 136.787Z" fill="#D46A6A"/>
<path d="M95.8224 150.278C85.0529 158.746 75.3798 169.494 68.299 185.594L58.8838 180.928C55.3563 177.834 46.1797 151.504 63.8816 141.693C75.7087 135.143 95.8224 150.278 95.8224 150.278Z" fill="#FFBBBA"/>
<path d="M95.8224 150.278C83.0926 160.156 74.1933 172.075 68.2991 185.594C68.2991 185.594 48.5271 156.009 66.3644 142.919C76.7405 135.277 95.8224 150.278 95.8224 150.278Z" fill="#F28F8F"/>
<path d="M95.8224 150.278C95.8224 150.278 85.0014 150.278 75.6829 161.316C66.9642 171.634 68.2991 185.593 68.2991 185.593C74.1933 172.075 83.0926 160.156 95.8224 150.278Z" fill="#D46A6A"/>
<path d="M142.963 177.912C139.152 176.016 133.754 176.345 127.763 179.333C116.226 185.092 106.888 198.538 106.888 209.375C106.888 214.548 109.023 218.189 112.505 219.967C114.188 220.82 120.766 224.114 122.462 224.945C126.267 226.807 131.645 226.467 137.604 223.496C149.122 217.72 158.479 204.269 158.479 193.437C158.479 188.269 156.351 184.629 152.875 182.845C151.185 182.009 144.633 178.742 142.963 177.912Z" fill="#F28F8F"/>
<path d="M137.591 184.239C149.122 178.48 158.472 182.6 158.472 193.437C158.472 204.274 149.122 217.72 137.591 223.479C126.061 229.238 116.704 225.118 116.704 214.281C116.704 203.444 126.054 189.992 137.591 184.239Z" fill="#FFA8A7"/>
<path d="M120.895 222.052C115.62 215.775 119.019 202.619 124.868 194.652C119.909 200.712 116.704 207.942 116.704 214.281C116.704 225.118 126.054 229.232 137.591 223.479C141.543 221.433 145.05 218.805 147.954 215.713C140.693 223.239 126.531 228.758 120.895 222.052Z" fill="#FFBBBA"/>
<path d="M130.22 204.229C132.252 203.215 133.902 204.04 133.902 206.069C133.834 207.174 133.465 208.25 132.825 209.209C132.185 210.168 131.293 210.983 130.22 211.588C128.182 212.608 126.531 211.783 126.531 209.748C126.602 208.643 126.973 207.567 127.613 206.608C128.254 205.649 129.147 204.834 130.22 204.229Z" fill="#F28F8F"/>
<path d="M131.445 204.843C131.451 204.509 131.399 204.176 131.291 203.856C130.914 203.934 130.554 204.06 130.22 204.229C129.147 204.834 128.254 205.649 127.613 206.608C126.973 207.567 126.602 208.643 126.531 209.748C126.527 210.084 126.582 210.419 126.693 210.741C127.069 210.661 127.43 210.534 127.763 210.362C128.836 209.757 129.728 208.942 130.368 207.983C131.008 207.024 131.377 205.948 131.445 204.843Z" fill="#E37B7B"/>
<path d="M144.936 196.876C146.968 195.856 148.619 196.681 148.619 198.716C148.549 199.821 148.179 200.895 147.539 201.853C146.9 202.811 146.008 203.625 144.936 204.229C142.898 205.25 141.248 204.425 141.248 202.395C141.316 201.289 141.686 200.213 142.327 199.254C142.968 198.295 143.862 197.48 144.936 196.876Z" fill="#F28F8F"/>
<path d="M146.187 197.49C146.194 197.154 146.142 196.82 146.033 196.498C145.655 196.574 145.294 196.702 144.962 196.877C143.888 197.481 142.994 198.295 142.353 199.254C141.712 200.213 141.342 201.29 141.273 202.396C141.27 202.73 141.324 203.062 141.435 203.382C141.81 203.303 142.171 203.177 142.505 203.009C143.576 202.403 144.467 201.587 145.107 200.629C145.747 199.67 146.117 198.595 146.187 197.49Z" fill="#E37B7B"/>
<path d="M100.736 186.407C103.45 186.407 105.65 184.506 105.65 182.16C105.65 179.813 103.45 177.912 100.736 177.912C98.0224 177.912 95.8224 179.813 95.8224 182.16C95.8224 184.506 98.0224 186.407 100.736 186.407Z" fill="#37474F"/>
<path d="M141.063 170.448C142.982 168.789 142.982 166.1 141.063 164.441C139.144 162.782 136.033 162.782 134.114 164.441C132.195 166.1 132.195 168.789 134.114 170.448C136.033 172.107 139.144 172.107 141.063 170.448Z" fill="#37474F"/>
<path d="M83.5375 136.787L61.4246 125.755L66.3386 123.302L88.4514 134.335L83.5375 136.787Z" fill="#F28F8F"/>
<path d="M66.3386 123.302V125.755L85.9945 135.561L88.4515 134.335L66.3386 123.302Z" fill="#E37B7B"/>
<path d="M66.3386 123.302V125.755L63.8816 126.982L61.4246 125.755L66.3386 123.302Z" fill="#D46A6A"/>
<path d="M73.6322 102.62C73.1697 102.637 72.7184 102.494 72.3775 102.223C72.0365 101.953 71.8337 101.576 71.8136 101.176L71.0978 86.5762C71.0881 86.3778 71.1237 86.1797 71.2025 85.9932C71.2813 85.8067 71.4019 85.6354 71.5573 85.4892C71.7127 85.3429 71.8998 85.2246 72.1081 85.1409C72.3164 85.0572 72.5418 85.0098 72.7713 85.0014C73.0008 84.9929 73.23 85.0237 73.4457 85.0918C73.6615 85.16 73.8596 85.2642 74.0288 85.3985C74.1979 85.5328 74.3348 85.6947 74.4317 85.8747C74.5285 86.0548 74.5833 86.2496 74.5931 86.448L75.2895 101.059C75.3054 101.455 75.1405 101.841 74.8305 102.133C74.5204 102.425 74.0901 102.6 73.6322 102.62Z" fill="#E0E0E0"/>
<path d="M55.6852 105.614C55.3785 105.606 55.0796 105.528 54.8191 105.388C54.5585 105.248 54.3456 105.051 54.202 104.816L46.2184 91.9278C46.11 91.7529 46.0425 91.5612 46.0199 91.3636C45.9972 91.1661 46.0197 90.9667 46.0862 90.7767C46.1526 90.5867 46.2617 90.4099 46.4073 90.2564C46.5528 90.1029 46.7318 89.9756 46.9342 89.8819C47.1366 89.7882 47.3584 89.7299 47.5869 89.7103C47.8154 89.6907 48.0461 89.7101 48.2658 89.7676C48.4856 89.8251 48.6901 89.9194 48.8677 90.0452C49.0453 90.171 49.1925 90.3258 49.3009 90.5007L57.2845 103.389C57.393 103.564 57.4606 103.756 57.4833 103.954C57.5061 104.151 57.4836 104.351 57.4171 104.541C57.3506 104.731 57.2414 104.907 57.0959 105.061C56.9503 105.214 56.7712 105.342 56.5687 105.435C56.2986 105.564 55.9931 105.625 55.6852 105.614Z" fill="#E0E0E0"/>
<path d="M103.967 113.39C103.587 113.432 103.202 113.364 102.871 113.198C102.539 113.031 102.281 112.776 102.134 112.47C101.987 112.164 101.961 111.824 102.059 111.504C102.158 111.184 102.375 110.901 102.677 110.698L116.033 101.728C116.214 101.606 116.421 101.516 116.643 101.464C116.864 101.411 117.095 101.397 117.323 101.421C117.551 101.446 117.771 101.509 117.971 101.607C118.17 101.705 118.346 101.836 118.487 101.993C118.628 102.15 118.732 102.329 118.792 102.52C118.853 102.712 118.87 102.911 118.842 103.108C118.813 103.305 118.74 103.496 118.627 103.668C118.513 103.841 118.362 103.992 118.18 104.114L104.825 113.089C104.575 113.255 104.279 113.359 103.967 113.39Z" fill="#E0E0E0"/>
<path d="M91.6114 105.235C91.3081 105.27 90.9995 105.237 90.715 105.14C90.5019 105.066 90.3078 104.956 90.1438 104.817C89.9799 104.678 89.8492 104.512 89.7594 104.329C89.6695 104.146 89.6222 103.95 89.6202 103.752C89.6182 103.553 89.6616 103.356 89.7477 103.172L96.0804 89.6143C96.2839 89.2876 96.6194 89.0371 97.0229 88.9105C97.4263 88.7839 97.8696 88.7901 98.2682 88.9279C98.6667 89.0657 98.9926 89.3255 99.1838 89.6577C99.375 89.9899 99.418 90.3713 99.3048 90.7292L92.9914 104.292C92.8777 104.541 92.6902 104.758 92.4478 104.924C92.2055 105.089 91.917 105.196 91.6114 105.235Z" fill="#E0E0E0"/>
</svg>
